<svg width="174" height="445" viewBox="0 0 174 445" fill="none" xmlns="http://www.w3.org/2000/svg">
<g clip-path="url(#clip0_170_117)">
<path d="M134.833 197.919C134.353 195.615 134.833 199.199 134.461 196.425C134.686 196.892 134.813 197.401 134.833 197.919Z" fill="white"/>
<path d="M132.757 188.803C131.558 185.203 130.426 180.984 129.078 176.723C127.823 172.518 126.299 168.397 124.514 164.388C124.125 163.496 124.935 164.487 124.018 162.488C121.789 158.149 120.536 153.375 120.346 148.501C120.175 143.207 121.118 137.935 123.116 133.028L123.017 133.614C123.703 131.905 124.133 129.618 124.737 127.751C124.803 127.751 124.638 128.379 124.861 127.966C124.861 127.438 125.779 124.515 125.853 123.664C126.134 122.929 126.258 123.045 126.606 122.095L126.688 120.948C126.978 117.777 128.607 113.566 129.334 109.339C129.334 109.545 129.276 109.966 129.409 109.652C130.682 102.89 132.608 94.509 134.105 86.9704C134.105 87.2842 134.196 87.5897 134.378 87.1686C134.229 86.7475 134.667 84.419 135.056 82.3961C135.478 81.5704 135.569 78.8951 136.197 76.5584V76.7896C136.321 74.9979 136.875 74.23 136.875 72.752L137.297 71.6786C137.123 70.8529 137.991 69.2015 138.123 67.707H138.082C138.281 66.3281 138.586 65.651 138.793 64.4042L138.859 64.2886C139.38 61.3078 139.909 59.6234 139.637 59.6482C140.05 58.6491 139.149 62.5299 139.777 60.9693C140.166 58.839 140.546 56.7087 140.935 54.5536L135.436 52.7123L129.814 50.772L118.66 46.8995C117.998 46.6375 117.354 46.3313 116.733 45.9829C115.774 45.7022 113.161 44.7857 112.26 44.6205C112.574 44.7196 111.689 44.2737 111.193 44.0921C109.54 43.3985 109.217 43.7123 107.365 42.9444C108.142 43.1425 108.423 43.1425 108.192 42.9444C106.497 42.5728 104.388 41.8049 102.404 41.1856C102.76 41.26 103.231 41.3921 103.173 41.2847C102.652 41.1691 102.123 41.0123 101.619 40.8471C101.619 40.4425 101.561 40.0214 101.536 39.6581V38.5517C101.512 37.828 101.451 37.1059 101.354 36.3884L101.552 37.1067C101.552 33.9856 101.172 36.2067 101.106 33.5149C101.197 34.159 101.246 33.9278 101.313 34.0434C100.866 31.5663 100.692 27.5039 100.428 25.0103C100.428 25.1507 100.502 25.1094 100.502 25.1094C100.411 23.7552 100.312 22.3598 100.221 20.9396C100.221 20.6093 100.18 20.2873 100.155 19.957C100.155 19.8579 100.048 19.8497 99.9979 19.8001L99.7995 19.668L99.3778 19.4121C98.7418 19.0457 98.0815 18.7229 97.4016 18.446C96.9303 18.19 97.0461 18.1488 96.9552 18.0166C96.8642 17.8845 96.5583 17.6699 95.1692 17.2405C95.1692 17.3974 94.0033 17.0671 92.9946 16.902C91.9858 16.7368 91.1755 16.679 91.9776 16.9763C90.2506 16.6496 88.4875 16.5552 86.7354 16.6955C85.8447 16.606 84.9472 16.606 84.0565 16.6955C85.1562 16.5469 82.8493 16.3405 84.8833 16.2827C84.3707 16.2166 83.8497 16.1671 83.3206 16.1423C83.5438 15.9854 84.9743 16.1423 84.4368 15.9854C83.586 16.015 82.738 16.1005 81.8984 16.2414C80.9062 16.39 79.9471 16.6377 79.484 16.7286C78.5615 17.0712 77.666 17.4824 76.8051 17.9588C76.3338 18.2148 75.846 18.4956 75.3085 18.7845L74.4817 19.2965L73.6548 19.8249C74.1096 19.4616 73.9442 19.4699 73.6548 19.5524C73.3654 19.635 73.0512 19.7671 73.4564 19.4781C73.3406 19.602 73.1505 19.6846 73.1091 19.8414V20.3946L73.2249 21.4681L73.3737 23.6314C73.3241 24.6552 73.1174 23.8378 73.1008 25.324C73.1918 25.2497 73.1918 25.902 73.2331 26.3562C73.2745 26.8103 73.0182 30.6085 72.6874 31.0379C72.5386 31.4755 72.737 29.3865 72.5551 30.4929C72.4311 32.3837 72.5551 32.4663 72.4063 34.3572C72.274 35.6039 72.2905 38.0397 72.5469 36.7021C72.613 35.8269 72.3402 37.0159 72.5469 35.7361C72.5937 36.4399 72.5937 37.146 72.5469 37.8498L72.489 39.2618C72.489 39.881 72.4063 40.5168 72.3732 41.1196C72.401 40.7213 72.3561 40.3212 72.2409 39.9388C72.2409 40.3352 72.2409 40.7645 72.2409 41.1444L68.6276 42.6389L65.2045 43.9682C65.2045 44.1169 66.1223 43.3737 66.5357 43.3077C63.0299 44.315 59.5242 46.049 56.5641 46.7673C57.0188 46.5774 56.8783 46.8747 56.8369 46.8417C55.1832 47.4031 55.1832 47.1802 54.1249 47.6674C53.2729 47.9036 52.443 48.213 51.6444 48.5921C51.0987 48.8811 51.3384 48.6417 52.2976 48.2866C50.7845 48.9224 44.641 51.2591 41.003 52.3325C40.0802 52.8581 39.1149 53.3055 38.1173 53.6702L38.3736 53.3729C37.5881 53.5298 35.6202 54.3472 35.4301 54.2481C33.7764 55.0738 42.1357 51.705 39.8206 52.7041C39.1508 52.7701 36.6042 54.1408 37.0341 53.7197C36.2817 53.9757 35.5624 54.2812 34.843 54.5454L33.9666 54.8839C33.7775 54.9538 33.5842 55.0117 33.3878 55.0573C33.392 55.1343 33.392 55.2115 33.3878 55.2885C33.3704 55.1863 33.334 55.0883 33.2803 54.9995C33.3547 54.9087 33.3712 54.8014 33.0653 54.8757C33.0722 54.9816 33.0888 55.0866 33.1149 55.1894L33.3134 56.0151C33.3362 56.128 33.3694 56.2386 33.4126 56.3454C33.5625 56.712 33.6706 57.0942 33.735 57.4849L34.0658 58.7152C34.2642 58.7152 34.4792 60.895 34.4957 59.9454C34.4048 60.2757 35.3226 63.4712 34.9588 63.2482L34.6528 62.9592C34.8871 63.8042 35.1799 64.6319 35.5293 65.4363C35.5293 65.5767 35.5293 65.8657 35.5293 65.8244C35.9262 65.9152 36.0171 68.3015 36.5546 69.5318C36.8853 71.7694 37.7039 75.1465 37.6956 76.2364C38.2063 77.924 38.6231 79.6386 38.9441 81.3722C38.8737 81.0289 38.7598 80.696 38.6051 80.3814C38.7246 81.268 38.9267 82.1415 39.2087 82.9906C39.1012 82.7511 39.5146 85.4677 39.68 86.8383C40.143 88.4897 40.2175 87.8787 40.3746 88.0191C40.3746 89.6705 41.6314 92.7173 41.7306 94.7154C41.5487 94.1457 41.0195 92.2962 41.2345 93.7164C41.2345 95.3677 42.1853 96.7549 42.5657 99.2733L42.7228 98.5962C42.7807 99.7439 43.7233 102.196 43.3594 102.015C43.6571 102.84 43.93 104.954 44.1863 104.616C44.8726 108.744 46.6668 114.425 46.7826 117.001C46.9727 117.571 47.3035 119.016 47.3779 118.652C47.2869 117.653 46.9149 117.348 46.9314 117.001C47.072 117.513 47.1794 117.612 47.2291 117.653C47.4936 118.925 47.7252 119.916 47.2291 118.793C47.7748 121.625 48.4528 121.534 49.3292 125.085C49.1639 124.952 49.1969 125.233 49.5111 126.257C49.7592 126.885 50.032 127.512 50.338 128.131C50.9912 130.394 50.4785 129.494 50.2884 129.609C50.6302 130.689 51.056 131.741 51.5617 132.755C51.6444 133.275 51.7271 133.796 51.8015 134.316C51.6361 133.176 52.248 135.282 52.4381 135.86L52.2232 135.29C52.2232 135.546 52.6531 136.941 52.835 137.693C52.7871 136.854 52.6457 136.023 52.4133 135.216C52.6779 135.827 52.926 136.826 53.2402 137.693C52.9839 137.453 53.5461 139.782 53.6536 140.814C53.72 141.377 53.8476 141.93 54.0339 142.465C53.9347 142.507 54.1828 144.398 53.9595 143.489C53.952 142.958 53.9023 142.428 53.8107 141.904C53.7249 142.672 53.7527 143.448 53.8934 144.208C54.0422 145.421 54.3068 143.877 54.2324 146.198C54.1896 145.798 54.1121 145.403 54.0009 145.017C54.0009 145.735 53.9513 146.454 53.9265 147.172L54.1084 147.263C54.0505 147.56 54.0422 147.353 54.0091 147.494C54.2158 148.138 53.8851 150.797 54.0091 151.3C53.8435 152.415 53.6087 153.518 53.3063 154.603V154.405C52.9425 155.627 52.587 157.278 52.372 158.344V158.269C52.157 158.938 51.6361 160.499 51.4046 161.349C50.5778 162.926 50.5281 161.63 50.0238 163.471C49.3623 165.122 49.3127 166.13 49.6848 165.519C48.4032 168.367 47.4688 171.794 46.2865 174.445C46.2754 174.812 46.2114 175.177 46.0963 175.526C44.4509 179.803 43.3512 184.774 42.1688 188.258C42.4086 186.954 42.0117 188.126 41.9042 188.135C41.7967 189.233 41.4164 189.373 41.6065 189.786C41.7967 189.72 41.8381 189.844 42.2184 188.613C41.6396 191.28 40.788 195.335 40.3498 196.796C40.573 196.069 40.5069 196.647 40.449 197.25C40.2257 197.003 39.8123 198.976 39.6221 200.495L39.7462 200.735L39.4237 201.684C39.5232 202.406 39.4697 203.14 39.2666 203.839C39.1539 203.954 39.074 204.096 39.0351 204.252C38.9762 206.09 38.8105 207.924 38.539 209.743L38.1504 211.105C38.1008 211.84 38.1504 213.071 38.3157 211.799C37.8858 214.689 37.7369 216.563 37.4889 217.472C37.6046 222.525 37.4889 229.791 37.7121 235.637L37.5881 235.472C37.5881 237.04 37.8362 236.297 37.8031 237.371C37.6625 236.867 37.6046 238.576 37.4062 237.371C37.3896 238.201 37.4588 239.031 37.6129 239.848L37.7866 240.74C37.7866 240.806 37.7866 240.913 37.7866 240.938V241.012C37.7902 241.062 37.7902 241.111 37.7866 241.161C37.8692 241.161 37.8362 241.086 37.7866 241.012C37.7739 240.966 37.7739 240.918 37.7866 240.872C37.7866 240.781 37.7866 240.748 37.861 240.814C37.8712 240.891 37.8712 240.968 37.861 241.045V241.342C38.0677 241.342 38.233 241.342 38.324 241.21C38.6134 241.26 38.6465 241.326 38.5638 241.4C38.4811 241.474 38.2413 241.532 38.233 241.582H38.4976H38.8366L39.5312 241.524C40.358 241.664 39.4154 241.788 38.4563 241.92H38.2827H38.1834L37.9767 241.978C37.8507 242.007 37.7265 242.043 37.6046 242.085C37.4062 242.16 37.307 242.234 37.6046 242.317H38.7126C39.895 242.564 35.4549 242.597 38.539 242.688C39.9281 242.564 41.1104 242.218 39.8785 242.11C42.7641 242.044 41.2179 241.541 44.3186 241.557C45.1454 241.706 41.8381 241.557 42.4334 241.788C43.8969 241.986 45.3687 241.681 46.6668 241.788C45.2281 241.697 46.4436 241.45 47.3779 241.408C48.9654 241.524 46.3526 241.631 48.5933 241.656C48.9654 241.524 51.016 241.417 49.2383 241.318C50.0651 241.004 51.57 241.408 52.7854 241.161C53.5213 241.384 50.4868 241.673 52.9425 241.788C52.5539 241.574 55.977 241.499 54.6789 241.177C55.638 241.243 55.7455 241.408 55.0427 241.541C56.4152 241.673 58.35 241.152 58.8296 241.541L59.3092 241.326C59.7391 241.392 60.351 241.45 61.0538 241.565C62.2693 241.565 64.9648 241.268 64.8573 241.565C65.2459 241.565 68.0158 241.565 66.9492 241.318C65.2211 241.177 64.9648 241.483 64.0056 241.177C65.1654 241.308 66.3381 241.269 67.4866 241.062L67.652 241.185C68.4291 241.186 69.2054 241.133 69.9754 241.029C69.5206 241.103 69.7604 241.185 70.2317 241.219L70.8518 241.029C73.2579 240.93 71.4224 241.367 73.7623 241.309L71.9846 241.458C72.3732 241.458 73.167 241.607 74.2915 241.549C74.7297 241.367 75.5483 241.161 75.9452 241.02C77.2681 240.946 76.5405 241.218 77.8386 241.02L76.1353 241.235C75.879 241.293 77.2846 241.524 79.0458 241.524C80.1703 241.466 81.9232 241.21 80.1455 241.111C81.0302 241.111 82.2705 241.218 81.5677 241.342C83.5686 241.285 81.3031 241.152 83.0312 241.045C83.7423 241.161 85.9417 241.326 87.2729 241.499L85.4704 241.796H86.8181C85.2636 242.036 87.6449 241.978 86.7272 242.226C87.5967 242.244 88.4666 242.208 89.3317 242.119C86.9339 241.722 92.0189 241.574 91.3244 241.21C94.6317 241.111 93.3749 242.094 96.8063 241.524C96.2441 241.425 97.8564 241.152 95.7893 241.26C97.8316 241.26 97.1784 240.888 99.5928 241.045C97.7985 241.194 101.503 241.408 98.923 241.631C99.0967 241.507 97.4843 241.532 97.0874 241.574C97.9143 241.714 96.9138 241.937 99.0057 241.937C100.279 241.937 102.032 241.896 101.784 241.706C101.726 241.499 99.8326 241.706 100.651 241.516C103.19 241.441 103.611 241.763 104.67 241.392C103.065 241.392 102.66 241.202 102.693 241.062L104.562 240.979L104.182 241.103C107.175 241.202 105.066 240.855 107.969 240.888L109.325 241.169C108.638 241.4 105.108 241.062 105.62 241.441C107.506 241.441 108.101 241.268 109.912 241.367L108.581 241.441C109.904 241.76 111.274 241.835 112.624 241.664C114.013 241.549 112.988 241.524 113.021 241.384C116.055 241.342 116.956 241.194 118.908 241.169C118.503 241.45 122.356 241.169 120.198 241.483C118.052 241.306 115.894 241.347 113.757 241.607C114.856 241.937 111.375 241.557 110.73 241.896C113.153 241.896 113.037 242.234 113.434 242.449C114.012 242.44 114.588 242.401 115.162 242.333C115.443 242.135 114.567 242.135 114.517 241.929C116.789 241.997 119.062 241.911 121.322 241.673C122.232 241.772 121.942 241.978 120.876 241.995C124.1 241.937 127.548 241.995 130.608 241.995C128.631 241.664 134.022 241.912 132.675 241.64C131.021 241.565 129.624 241.334 130.525 241.185C131.55 241.185 130.525 241.326 130.922 241.4C132.228 241.218 132.947 241.689 134.229 241.4C131.286 241.507 133.659 241.805 133.113 242.061C135.23 241.92 133.047 242.251 135.105 242.251L136.238 242.152C136.238 241.078 136.304 238.849 136.346 237.09C136.627 233.743 136.688 230.38 136.528 227.025C136.635 225.654 136.941 226.579 136.966 225.084C136.966 223.334 136.693 226.389 136.751 223.796L136.817 224.044C136.743 223.218 136.817 219.28 136.354 218.537L136.718 219.313C136.701 218.869 136.645 218.427 136.552 217.992C136.66 217.992 136.71 217.397 136.834 218.182C136.822 216.475 136.676 214.771 136.395 213.087L136.304 214.218C135.908 211.262 135.85 209.264 135.42 206.415L135.618 206.473L135.263 204.822C135.494 205.21 135.395 203.633 135.105 202.758C135.478 204.211 135.841 205.664 136.18 207.126C136.222 208.372 135.792 205.804 135.709 206.605C135.722 207.867 135.897 209.121 136.23 210.338C136.184 209.713 136.082 209.094 135.924 208.488C136.131 208.125 136.329 209.669 136.569 210.412C136.555 209.94 136.497 209.47 136.395 209.008C136.664 210.275 136.852 211.557 136.958 212.848C136.743 211.675 136.858 213.508 136.743 213.062C136.966 213.186 137.214 214.854 137.297 217.026C137.148 218.586 137.727 221.088 137.727 223.631C137.42 222.37 137.196 221.09 137.057 219.8C137.057 221.377 137.164 221.55 137.098 223.103C137.456 224.187 137.662 225.315 137.71 226.455L137.545 226.571C137.746 227.979 137.843 229.4 137.834 230.823C137.768 232.862 137.693 234.951 137.586 236.875C137.528 237.841 137.47 238.791 137.412 239.683C137.412 240.129 137.355 240.558 137.321 240.979C137.288 241.4 137.239 242.028 137.197 242.523H137.032C137.032 242.672 137.032 242.829 137.032 243.027C136.528 243.093 135.8 243.134 134.973 243.159C134.337 243.159 133.634 243.159 132.923 243.159C131.5 243.159 130.029 243.159 128.946 243.225C124.985 243.068 120.346 243.382 118.312 243.101C111.326 243.225 105.215 243.349 97.9804 243.291L99.1959 243.043C97.8977 243.225 98.369 242.903 97.0792 242.944C98.5427 243.134 95.318 243.192 94.425 243.341C91.0174 243.227 87.6063 243.29 84.2053 243.53L84.0978 243.365C81.2039 243.679 77.7559 243.365 74.1757 243.365C73.4741 243.221 72.7589 243.151 72.0425 243.159C70.0911 243.431 69.0659 243.415 66.205 243.58C64.1214 243.58 60.7231 243.514 58.6064 243.407C55.0261 243.58 51.4211 243.63 47.7748 243.646L35.7112 243.72C35.612 242.655 35.521 241.565 35.4218 240.484L35.5789 239.881C35.1272 235.664 34.9422 231.422 35.0249 227.182C35.0911 222.88 35.3474 218.743 35.5045 215.341L35.7939 216.018C36.0585 213.913 36.1329 211.18 35.8518 211.7C36.1577 209.578 36.2817 206.374 36.7613 205.094C37.1251 202.939 36.9928 202.427 37.2408 200.627C38.109 196.334 38.4232 194.74 39.2418 190.719L38.9937 191.71C38.9937 192.172 39.1012 192.238 39.341 191.239C39.5808 189.72 40.7549 185.765 39.9942 187.16C41.2675 182.941 42.5409 177.186 44.2276 173.231C44.0044 173.536 44.3351 172.504 44.4178 172.05C45.6746 168.392 47.3613 164.693 48.3866 161.77C48.676 161.217 48.1882 162.736 48.8 161.299C49.106 160.474 48.6843 161.225 49.0398 160.185C50.064 157.366 50.8333 154.462 51.3384 151.507C51.5691 150.063 51.7154 148.608 51.7767 147.147C51.8236 145.742 51.7738 144.335 51.6278 142.936C51.331 140.501 50.8275 138.095 50.123 135.744C49.7674 134.555 49.354 133.416 48.9241 132.194C48.4941 130.972 48.0972 129.717 47.7169 128.511C46.212 123.607 45.0049 118.71 43.8307 114.028L43.93 114.111C42.8633 111.048 42.4747 106.68 41.4495 104.26C41.3585 103.501 40.8376 101.412 41.1187 101.932C40.3332 99.4549 39.7379 94.8641 38.6878 91.2971C38.7507 91.6013 38.8308 91.9018 38.9276 92.1971C38.2992 88.4897 37.3731 85.3108 36.7034 81.4052C36.8036 81.8115 36.9363 82.2092 37.1003 82.5942C36.9432 81.0667 36.0254 79.1181 36.2734 78.2181C36.0915 77.3924 35.951 77.6483 36.075 78.1685C35.3474 74.3868 34.5288 70.4978 33.6854 66.6088C32.7594 62.3069 31.8168 57.9555 30.8824 53.6371L34.8182 52.2252C41.0112 50.3261 35.4053 52.7123 40.1348 50.7637C40.5565 50.6977 40.3663 50.5243 40.4655 50.5821C42.2928 49.8307 43.5083 49.9793 44.7403 49.3353C44.1284 49.3353 45.5671 48.9142 45.5671 48.7655C49.3458 47.6096 50.1726 47.5518 53.0583 46.3545L52.8764 46.5527C56.1837 45.0169 60.2766 43.8031 63.063 42.4242L70.3805 39.8315C70.7168 34.1838 71.053 28.5883 71.3893 23.0451L71.5216 20.8488L71.5795 19.9735C71.5908 19.6332 71.624 19.294 71.6787 18.9579L72.5055 18.3882L73.2662 17.9093C74.6228 17.092 76.0645 16.4248 77.5658 15.9194C79.0596 15.4202 80.5997 15.0717 82.163 14.879C82.9898 14.7882 83.734 14.7304 84.5195 14.7139C84.9164 14.7139 85.3463 14.7139 85.7101 14.7139H86.2972H86.7354H87.091H87.5953C87.9316 14.7139 88.2706 14.7139 88.6123 14.7139C89.2904 14.7139 89.9684 14.7386 90.6464 14.7882C91.9983 14.8957 93.3377 15.1251 94.6483 15.4735C95.9713 15.8121 97.2588 16.2766 98.4931 16.8607C99.1132 17.1497 99.7168 17.4717 100.312 17.8185L100.99 18.2396L101.767 18.7433C102.131 18.8506 102.015 19.2387 102.073 19.569L102.139 20.502C102.564 26.9369 102.986 33.3305 103.404 39.6829L120.14 45.4627C126.101 47.5435 132.079 49.6573 138.123 51.8289L140.067 52.6545L142.679 53.6536C142.506 54.4298 142.349 55.1647 142.183 55.9078C142.084 56.3867 141.985 56.8821 141.877 57.4188C141.704 58.3684 141.505 59.4913 141.216 61.1014C141.216 60.895 141.257 60.573 141.141 60.9032C141.356 61.2005 140.447 64.4124 140.604 64.9326C139.124 72.0831 137.76 78.6639 136.23 86.0126C136.453 84.8401 136.362 84.2126 136.081 85.5998L135.941 87.0778L135.817 87.2925C135.659 88.2503 135.569 89.3071 135.858 88.3493C133.981 97.5971 131.873 106.713 129.541 115.754C128.358 120.271 127.143 124.762 125.721 129.229C125.382 130.344 124.985 131.459 124.596 132.574C124.208 133.688 123.827 134.704 123.513 135.777C122.875 137.908 122.426 140.091 122.174 142.3C121.827 144.698 121.763 147.129 121.984 149.542C122.204 152.041 122.689 154.51 123.431 156.907C123.866 158.538 124.404 160.141 125.043 161.704C125.671 163.355 126.283 164.941 126.862 166.559C128.028 169.779 129.094 173 130.087 176.236C132.079 182.726 133.791 189.315 135.287 196.375C135.012 195.87 134.78 195.342 134.593 194.798C134.138 193.535 133.526 191.677 132.757 188.803Z" fill="white"/>
<path d="M135.353 200.702C135.296 201.222 135.494 202.857 135.097 201.593C135.196 201.412 135.205 200.553 135.353 200.702Z" fill="white"/>
<path d="M134.841 241.714C134.583 241.714 134.325 241.689 134.072 241.639C134.345 241.639 134.609 241.639 134.857 241.582H135.089C135.135 241.574 135.183 241.574 135.229 241.582C134.99 241.59 135.097 241.656 134.841 241.714Z" fill="white"/>
<path d="M123.621 241.631C124.942 241.459 126.274 241.382 127.606 241.4L123.621 241.631Z" fill="white"/>
<path d="M113.161 241.103C112.26 241.004 112.508 240.946 113.723 240.946C113.814 241.045 113.409 241.103 113.161 241.103Z" fill="white"/>
<path d="M112.45 241.408C111.874 241.42 111.298 241.376 110.73 241.276C110.73 241.375 112.706 241.21 112.45 241.408Z" fill="white"/>
<path d="M89.7203 241.103C88.9778 241.173 88.2303 241.173 87.4878 241.103C88.05 241.103 90.1254 240.88 89.7203 241.103Z" fill="white"/>
<path d="M79.1698 241.243C78.878 241.222 78.5851 241.222 78.2934 241.243C77.665 241.194 78.2934 241.103 78.8556 241.094L79.1698 241.243Z" fill="white"/>
<path d="M42.2101 96.8044L42.516 97.9026L42.3589 97.7623L42.2101 96.8044Z" fill="white"/>
<path d="M71.166 41.9452C72.7205 41.3259 72.3815 41.6397 72.6791 41.5571C71.1743 42.1103 73.0926 41.2846 71.166 41.9452Z" fill="white"/>
<path d="M95.5 17.744L95.1775 17.6449L95.3594 17.4468L95.5 17.744Z" fill="white"/>
<path d="M90.0179 434.72C91.4897 434.662 89.1911 434.505 90.9771 434.629C90.6745 434.758 90.3394 434.79 90.0179 434.72Z" fill="white"/>
<path d="M91.2913 429.361C90.6547 424.63 91.2913 418.404 90.8945 413.219C90.8945 412.616 91.2417 413.376 91.1508 412.005C90.6629 406.985 90.9606 399.075 91.3327 392.956L91.4319 393.328C91.5063 392.164 91.1839 390.735 91.2252 389.505C91.2913 389.505 91.3162 389.901 91.4071 389.612C91.2087 389.299 91.3162 387.383 91.1673 386.855C91.25 386.367 91.3988 386.417 91.4898 385.789L91.2665 385.079C90.7374 383.114 91.2665 380.307 91.0268 377.648C91.0764 377.78 91.1177 378.044 91.1673 377.83C90.8531 373.528 90.911 368.144 90.787 363.331C90.8697 363.529 91.0102 363.702 91.1012 363.421C90.8697 363.182 90.8035 361.696 90.7622 360.408C91.0019 359.83 90.5389 358.195 90.6712 356.684L90.7291 356.816C90.4728 355.693 90.8697 355.164 90.572 354.248L90.7622 353.538C90.4232 353.042 90.9358 351.886 90.7622 350.995H90.696C90.6133 350.119 90.7787 349.665 90.696 348.864V348.782C90.6051 346.891 90.7952 345.793 90.5307 345.834C90.7456 345.173 90.6299 347.667 90.9358 346.66C90.6629 340.434 90.7208 334.018 90.7126 327.751C90.7431 327.303 90.8235 326.86 90.9523 326.43C90.9027 325.803 90.9027 324.069 90.7704 323.499C90.7704 323.714 90.9027 323.094 90.9193 322.764C91.0185 321.625 90.6299 321.526 90.7456 320.287C90.8118 320.782 90.9027 320.956 91.0019 320.791C90.846 319.542 90.7659 318.284 90.7622 317.026C90.8035 317.224 90.8283 317.529 90.911 317.48C90.6795 316.101 90.9606 314.961 90.8118 313.756L90.9689 314.21C91.1508 312.261 90.6464 313.632 90.7539 311.948C90.8035 312.352 90.8614 312.212 90.9275 312.286C90.6464 310.717 90.7374 308.158 90.6464 306.605C90.6464 306.696 90.7126 306.671 90.7126 306.671C90.6712 304.962 90.7622 303.179 90.6381 301.304C90.7126 300.619 91.0102 301.527 90.9606 299.719C90.6547 299.785 90.8283 296.647 90.481 297.721C90.5307 296.177 90.6464 293.733 90.5472 292.701C90.6629 293.394 90.9193 291.949 90.9441 293.229L91.1342 292.263C91.2583 292.403 91.1342 293.262 91.25 292.957C91.25 292.312 91.1177 290.438 91.1673 289.86C90.8461 288.477 90.6524 287.068 90.5885 285.649C90.7043 286.557 90.9275 285.129 90.9771 285.748L90.3901 283.056C90.3901 282.412 90.6299 282.916 90.5472 281.991C90.4728 282.041 90.4232 281.636 90.357 281.356C90.2909 281.075 90.2743 278.689 90.5803 278.408C90.696 278.127 90.6464 279.448 90.7539 278.738C90.7539 277.557 90.6464 277.5 90.6381 276.319C90.6381 275.534 90.5058 274.015 90.3405 274.866C90.3405 275.411 90.5224 274.659 90.4397 275.46C90.2458 274.434 90.1682 273.39 90.2082 272.347C90.2578 272.752 90.3405 272.702 90.4232 272.867C90.1834 271.274 90.109 269.565 90.0097 267.806C89.8692 267.806 90.2743 268.475 90.1999 268.731C90.3984 266.452 89.9188 264.024 90.1999 262.125C90.1999 262.439 89.9932 262.298 90.0345 262.274C90.1142 261.688 90.1639 261.098 90.1834 260.507C90.3074 260.441 90.1834 259.607 90.109 258.855C90.018 258.476 90.1668 258.665 90.1834 259.309C89.987 256.813 89.9483 254.306 90.0676 251.804C89.8816 251.151 89.7843 250.476 89.7782 249.797L89.9684 250.012C90.0842 249.517 89.9684 248.187 90.1172 248.097C89.8857 246.932 90.3074 252.58 90.1172 251.003C90.2743 250.598 89.8113 248.815 90.0676 249.153C89.981 248.087 89.981 247.016 90.0676 245.95C90.0676 246.255 90.3322 246.833 90.3157 245.95C90.3398 245.629 90.3175 245.306 90.2495 244.992C90.2326 244.938 90.2188 244.883 90.2082 244.827V244.62V244.323L90.1255 243.894C90.018 243.935 90.0511 243.663 90.0511 243.53C89.9601 243.53 89.9188 243.53 89.9436 243.63C89.9436 243.555 89.6707 243.58 89.4227 243.58C89.2989 243.591 89.1744 243.591 89.0506 243.58C88.877 243.58 88.7778 243.514 88.8191 243.44L89.0341 243.2C88.4712 243.261 87.9167 243.382 87.3804 243.563C87.2977 243.563 87.1158 243.489 87.1489 243.448C87.0414 243.819 85.5448 243.448 84.7428 243.704L83.9159 243.646H83.3372C83.3458 243.972 83.2925 244.297 83.1801 244.604C83.3375 245.697 83.3929 246.803 83.3454 247.907C83.3454 247.659 83.3454 247.32 83.2214 247.254C83.1567 247.804 83.1734 248.361 83.271 248.906C83.2131 248.749 83.056 250.458 82.9237 251.325C83.0312 252.398 83.2297 252.035 83.3537 252.151C82.9899 253.133 83.5852 255.189 83.2545 256.428C83.2049 256.056 83.0808 254.851 82.9899 255.751C82.6261 256.733 83.2545 257.741 83.0808 259.326L83.3868 258.938C83.1966 259.648 83.5604 261.275 83.2545 261.118C83.362 261.646 83.1552 262.992 83.4446 262.81C83.1966 265.428 83.5935 269.16 83.0726 270.77C83.0726 271.142 83.0726 272.075 83.2214 271.885C83.3785 271.257 83.0974 271.018 83.2214 270.787C83.2214 271.117 83.3123 271.191 83.3537 271.224C83.2875 272.05 83.2627 272.677 83.023 271.91C82.8411 273.718 83.5191 273.776 83.4033 276.038C83.2793 275.931 83.2379 276.104 83.2545 276.781L83.4612 278.053C83.4116 279.539 83.1883 278.878 82.9816 278.936C82.9601 279.648 83.0211 280.36 83.1635 281.058L82.8989 282.024C83.0891 281.322 83.023 282.677 83.0726 283.056L83.023 282.677C82.967 283.184 82.967 283.697 83.023 284.204C83.1726 283.7 83.2478 283.177 83.2462 282.652C83.3289 283.056 83.3123 283.684 83.4198 284.229C83.2131 284.047 83.271 285.517 83.2545 286.153C83.2379 286.789 83.4364 286.978 83.4281 287.177C83.3206 287.177 83.4281 288.357 83.2627 287.796C83.2929 287.472 83.2929 287.146 83.2627 286.822C83.0882 287.271 83.0452 287.761 83.1387 288.234C83.2379 288.985 83.5356 288.044 83.4116 289.456C83.365 289.208 83.2958 288.964 83.2049 288.729L83.0974 290.058L83.2875 290.116C83.2379 290.29 83.2214 290.166 83.1966 290.248C83.3868 290.645 83.2545 292.271 83.4777 292.577C83.4777 293.246 83.3454 293.98 83.3289 294.616V294.501C83.2376 295.326 83.2655 296.16 83.4116 296.978H83.3702C83.3646 297.622 83.4116 298.265 83.5108 298.902C83.3702 299.983 82.8162 299.265 83.0478 300.454C83.0478 301.552 83.3868 302.171 83.5025 301.725C83.3785 303.691 83.6844 305.92 83.395 307.745C83.4694 308.025 83.5191 307.844 83.5604 308.43C83.486 311.312 83.7754 314.515 83.4198 316.811C83.3372 315.985 83.2297 316.753 83.1304 316.811C83.2875 317.496 82.9568 317.637 83.2379 317.884C83.4033 317.818 83.486 317.884 83.5521 317.059C83.6605 318.819 83.6383 320.586 83.486 322.343C83.5604 321.872 83.6183 322.236 83.6679 322.615C83.4033 322.492 83.362 323.755 83.4529 324.721L83.6183 324.853L83.4446 325.481C83.5025 325.844 83.7836 325.885 83.6348 326.835C83.5884 326.867 83.5492 326.909 83.5193 326.957C83.4895 327.006 83.4697 327.059 83.4612 327.116C83.6711 328.259 83.7432 329.423 83.6762 330.583L83.4446 331.467C83.4446 331.929 83.61 332.705 83.6762 331.896C83.6574 333.104 83.5357 334.309 83.3123 335.496C83.754 339.294 83.9171 343.119 83.8002 346.94L83.6762 346.833C83.5604 347.824 83.8911 347.345 83.8002 348.039C83.6844 347.717 83.5521 348.79 83.4116 348.039C83.3838 348.963 83.4727 349.886 83.6762 350.788C83.8333 350.92 83.5769 350.045 83.7754 350.218C83.8333 350.384 83.6514 352.175 83.8911 352.398C83.8002 352.753 83.6183 352.481 83.5273 352.291L83.6431 353.117C83.362 354.174 83.1387 350.706 82.8162 351.82V352.646C82.5599 353.406 82.5268 350.54 82.4442 352.539C82.5599 353.406 82.9072 354.19 83.0147 353.364C83.0808 355.164 83.5935 354.19 83.5687 356.139C83.4281 356.675 83.5687 354.586 83.3372 354.958C83.2743 355.84 83.2743 356.726 83.3372 357.608C83.4281 356.708 83.6679 357.468 83.7175 358.054C83.6017 359.045 83.486 357.41 83.4612 358.814C83.6017 359.045 83.7092 360.333 83.8002 359.219C84.1144 359.722 83.7175 360.672 83.9573 361.431C83.734 361.894 83.4446 359.995 83.3372 361.53C83.5521 361.291 83.6265 363.43 83.9407 362.62C83.8829 363.223 83.7092 363.281 83.5852 362.843C83.4529 363.669 83.9738 364.932 83.5852 365.213L83.8002 365.51C83.7258 365.783 83.6762 366.163 83.5604 366.609C83.5604 367.368 83.8498 369.086 83.5604 368.978C83.5604 369.226 83.5604 370.96 83.8002 370.291C83.9407 369.209 83.6348 369.053 83.949 368.45C83.8102 369.175 83.8499 369.923 84.0648 370.63L83.9325 370.729C83.9344 371.218 83.9899 371.705 84.0978 372.182C84.0234 371.901 83.9325 372.05 83.9077 372.339L84.0978 372.727C84.1971 374.238 83.7588 373.082 83.8167 374.552L83.6596 373.437C83.601 373.916 83.5733 374.399 83.5769 374.882C83.7506 375.154 83.9655 375.666 84.0978 375.898C84.1805 376.723 83.8994 376.269 84.0978 377.078L83.8829 376.021C83.825 375.856 83.5935 376.74 83.6017 377.838C83.6596 378.54 83.9159 379.638 84.0152 378.523C84.0152 379.077 83.9077 379.853 83.7754 379.415C83.8415 380.67 83.9656 379.25 84.0813 380.332C83.9573 380.777 83.7919 382.148 83.6183 382.982L83.3289 381.851V382.602C83.0974 381.636 83.147 383.098 82.8989 382.553C82.8817 383.106 82.9205 383.659 83.0147 384.204C83.4116 382.701 83.5604 385.855 83.9242 385.451C84.0234 387.499 83.0395 386.731 83.61 388.878C83.701 388.522 83.9821 389.538 83.8746 388.242C83.8333 389.522 84.2384 389.109 84.0896 390.62C83.9407 389.497 83.7175 391.817 83.5025 390.199C83.6265 390.306 83.5935 389.299 83.5604 389.051C83.4198 389.579 83.1883 388.944 83.1883 390.256C83.2297 391.082 83.2379 392.147 83.4281 391.99C83.6183 391.833 83.4281 390.768 83.61 391.28C83.6844 392.866 83.3702 393.13 83.7423 393.757C83.7423 392.758 83.9242 392.502 84.0648 392.519L84.1557 393.691L84.0152 393.46C83.9159 395.334 84.2715 394.013 84.2301 395.83L83.9573 396.656C83.7175 396.226 84.0648 394.022 83.6762 394.344C83.6762 395.516 83.8581 395.912 83.7588 397.027L83.6844 396.201C83.3639 397.003 83.2834 397.881 83.4529 398.728C83.5769 399.595 83.5935 398.959 83.734 398.976C83.7836 400.875 83.9325 401.453 83.949 402.658C83.6679 402.402 83.949 404.813 83.6348 403.484C83.8106 402.143 83.7715 400.783 83.5191 399.455C83.1801 400.14 83.5191 397.968 83.2297 397.556C83.2297 399.075 82.8907 399.001 82.6757 399.248C82.6779 399.611 82.7139 399.973 82.7832 400.33C82.9899 400.512 82.9816 399.958 83.1883 399.925C83.1288 401.351 83.2147 402.778 83.4446 404.186C83.3454 404.756 83.147 404.574 83.1222 403.905C83.1883 405.92 83.1222 408.075 83.1222 409.991C83.4529 408.752 83.1966 412.121 83.4777 411.279C83.5439 410.255 83.7836 409.371 83.9325 409.933C83.9325 410.577 83.7836 409.933 83.7175 410.18C83.8994 411.006 83.4281 411.452 83.7175 412.253C83.61 410.412 83.3206 411.898 83.056 411.559C83.2049 412.889 82.8741 411.502 82.8741 412.814C83.0147 414.136 83.1304 415.762 83.1883 417.232C83.0558 419.341 83.0558 421.456 83.1883 423.565C83.056 424.391 82.7584 423.846 82.7088 424.779C82.7088 425.877 83.023 423.953 82.8907 425.604L82.8328 425.448C82.8989 425.935 82.6343 428.428 83.056 428.915L82.7418 428.412C82.7318 428.689 82.7568 428.966 82.8162 429.237C82.717 429.237 82.6178 429.601 82.5517 429.105C82.4405 430.17 82.4405 431.244 82.5517 432.309L82.7418 431.607C82.7888 432.394 82.7888 433.182 82.7418 433.969H83.5687C83.8746 433.969 84.1723 433.969 84.6105 433.969L84.5609 434.15L85.6358 434.043C85.3712 434.216 86.3634 434.332 86.9339 434.183L84.1226 434.638C83.6679 434.58 83.9407 434.522 84.2053 434.464C84.4699 434.406 84.7345 434.324 84.4947 434.233C83.8138 434.112 83.1168 434.112 82.4359 434.233C82.4266 434.172 82.4008 434.115 82.3615 434.068V434.316C82.6915 434.314 83.0207 434.284 83.3454 434.225C83.4281 434.431 82.7749 434.464 82.1217 434.563C82.1035 434.462 82.0758 434.362 82.039 434.266C82.039 434.382 82.039 434.514 82.039 434.646C82.269 434.683 82.5036 434.683 82.7336 434.646C82.4938 434.646 82.2457 434.704 81.9811 434.72C81.9233 434.175 81.915 433.432 81.915 432.466C81.9646 432.904 81.9977 432.78 82.039 432.582C82.0804 432.383 82.1052 432.202 82.1382 432.342C81.915 432.251 81.8488 431.203 81.915 429.865C82.1713 428.891 81.7414 427.314 81.8158 425.737C82.083 426.513 82.2524 427.321 82.3201 428.139C82.4359 427.157 82.3201 427.041 82.4276 426.059C82.1131 425.395 81.9305 424.677 81.8902 423.945L82.0638 423.879C81.8801 423.007 81.7832 422.119 81.7744 421.228C81.8571 418.677 81.8571 416.059 81.8736 414.119L82.0473 414.045C81.6835 412.963 81.915 410.445 81.7496 408.991C81.915 406.514 81.5925 403.608 81.8819 402.386C81.7496 398.018 81.6256 394.195 81.6917 389.67L81.9315 390.43C81.7496 389.604 82.0721 389.901 82.039 389.109C81.8406 390.025 81.7827 388.002 81.6339 387.457C81.7559 385.328 81.6923 383.193 81.4437 381.075L81.6173 381C81.3031 379.2 81.576 377.037 81.6173 374.791C81.7691 374.362 81.8393 373.908 81.824 373.454C81.6052 372.25 81.4643 371.034 81.4023 369.812C81.4023 368.499 81.4768 366.377 81.576 365.056C81.1956 360.102 81.4437 355.148 81.2122 350.004L81.4106 349.632C80.9889 344.678 81.4106 338.584 81.1543 334.357L81.4933 334.77C81.5925 333.44 81.4024 331.748 81.1626 332.078C81.2701 330.749 80.9972 328.775 81.2783 327.949C81.2697 327.016 81.2034 326.084 81.0799 325.159C81.2039 322.442 81.1708 321.426 81.0799 318.867V319.503C81.1543 319.783 81.3031 319.808 81.3197 319.172C81.2287 318.215 81.4106 315.655 81.0137 316.604C81.2453 313.863 80.8236 310.214 81.1378 307.522C81.022 307.745 81.0055 307.076 80.931 306.795C80.931 304.392 81.146 301.841 80.931 299.95C80.9807 299.562 81.113 300.553 81.1295 299.579C81.0882 299.001 80.9807 299.579 80.9228 298.852C80.7161 294.963 81.1295 290.975 81.0799 287.433C80.8649 281.141 80.9724 274.577 80.9393 268.549L81.022 268.615C80.7161 266.6 81.3362 263.884 80.8732 262.274C80.9476 261.795 80.8732 260.449 81.0633 260.804C80.8484 259.153 81.2701 256.304 80.9889 253.975C80.9821 254.172 80.9987 254.369 81.0385 254.562C81.2122 252.217 80.9724 250.144 81.1295 247.667C81.1402 247.934 81.1875 248.198 81.2701 248.452C81.4272 247.494 80.9311 246.181 81.3197 245.652C81.3197 245.108 81.1295 245.264 81.1378 245.603C81.1378 245.058 81.1378 244.505 81.1378 243.952C81.1378 243.175 81.1378 242.383 81.1378 241.582H84.4451H86.5701L92.1347 241.491C92.1761 243.753 92.2091 246.008 92.2505 248.245C92.019 252.291 91.5973 248.493 91.8867 251.688C91.8123 251.944 92.0355 251.87 91.9528 251.919C92.0603 253.15 91.5229 253.843 91.7213 254.702C91.9611 254.347 91.8536 255.272 92.0024 255.297C91.8453 257.774 91.6303 258.261 91.8123 260.251L91.6882 260.102C92.0438 262.389 91.8536 265.056 92.2587 266.972C92.3828 279.589 92.4985 291.685 92.6143 303.98C92.5316 316.142 92.7218 328.049 92.4985 340.401C92.1982 342.482 92.1372 344.59 92.3166 346.684C92.2587 346.561 92.2505 346.354 92.2009 346.569C92.4655 346.726 92.2009 348.807 92.482 349.112C92.4324 353.678 92.482 357.881 92.482 362.579C92.482 361.836 92.2339 361.464 92.2505 362.348L92.4241 363.273L92.3497 363.421C92.3497 364.024 92.5233 364.685 92.606 364.057C92.8458 375.856 92.3001 387.466 92.3662 399.025C92.2505 401.767 92.3662 405.672 92.4076 408.653C92.052 417.496 91.7544 425.464 92.0107 434.439C92.1513 434.316 91.4484 433.102 91.2913 429.361Z" fill="white"/>
<path d="M88.2486 434.745C87.9344 434.613 86.9008 434.538 87.7277 434.357C87.8269 434.481 88.3561 434.629 88.2486 434.745Z" fill="white"/>
<path d="M83.3784 412.616C83.3784 412.616 83.428 412.228 83.4528 412.137C83.5068 412.442 83.5262 412.753 83.5107 413.062C83.5107 412.715 83.4363 412.773 83.3784 412.616Z" fill="white"/>
<path d="M83.4529 405.598C83.6267 406.411 83.7044 407.243 83.6844 408.075L83.4529 405.598Z" fill="white"/>
<path d="M83.9573 399.058C84.0565 398.497 84.1144 398.654 84.1061 399.413C84.0482 399.471 84.0152 399.215 83.9573 399.058Z" fill="white"/>
<path d="M83.6761 398.596C83.6712 398.23 83.7185 397.866 83.8167 397.514C83.7092 397.539 83.8828 398.81 83.6761 398.596Z" fill="white"/>
<path d="M84.0317 384.402C83.9613 383.94 83.9613 383.469 84.0317 383.007C83.9573 383.362 84.2053 384.666 84.0317 384.402Z" fill="white"/>
<path d="M83.8497 377.805C83.8702 377.624 83.8702 377.441 83.8497 377.26C83.9076 376.864 83.9986 377.26 84.0068 377.607L83.8497 377.805Z" fill="white"/>
<path d="M83.362 257.724L83.4198 258.442L83.3041 258.335L83.362 257.724Z" fill="white"/>
<path d="M90.0758 271.654C90.1502 272.364 89.96 272.149 89.9435 272.265C89.9352 271.654 90.1254 272.479 90.0758 271.654Z" fill="white"/>
<path d="M90.6794 300.016V299.802L90.9275 299.876L90.6794 300.016Z" fill="white"/>
<path d="M86.7188 15.4899C90.5273 15.4899 93.6147 12.4068 93.6147 8.60358C93.6147 4.80038 90.5273 1.71729 86.7188 1.71729C82.9104 1.71729 79.823 4.80038 79.823 8.60358C79.823 12.4068 82.9104 15.4899 86.7188 15.4899Z" fill="white"/>
<path d="M94.0537 8.71158C94.0537 8.54533 93.8375 8.80302 93.9705 8.60352C94.062 8.62845 94.1368 8.6617 94.0537 8.71158Z" fill="white"/>
<path d="M93.8959 8.05042C93.7665 7.95632 93.6625 7.83163 93.5932 7.68753C93.524 7.54342 93.4916 7.3844 93.499 7.22472C93.4494 6.92747 93.4494 6.5972 93.16 6.39903C93.1104 6.34949 93.4907 6.3082 93.3584 6.19261C92.73 5.83756 92.6308 5.02838 92.5316 4.23571H92.6308C92.6308 4.08708 92.2587 4.15314 92.2009 4.02103C92.143 3.88892 92.3001 4.02103 92.3497 3.91369C92.1761 4.01277 92.1099 3.78983 91.9611 3.83938C91.9611 3.74855 92.1016 3.64947 92.1099 3.53387L91.8949 3.63295C91.374 3.84763 91.5311 3.23662 91.126 3.24488C91.1756 3.24488 91.2252 3.24488 91.2335 3.14579C90.7143 3.00979 90.2058 2.83593 89.7121 2.6256C89.7814 2.54503 89.8297 2.44859 89.8526 2.34487C89.8101 2.41706 89.7449 2.4732 89.6672 2.50456C89.5894 2.53592 89.5035 2.54074 89.4227 2.51826C89.4227 2.2623 89.125 2.63386 89.0258 2.45221C88.8356 2.65037 88.91 2.25404 88.7281 2.51001V2.30358C88.5876 2.60909 88.6206 2.0889 88.4718 2.22927V2.30358C88.3561 2.36138 88.3561 2.17973 88.2568 2.21276C88.0419 2.21276 87.9674 2.04762 87.9178 2.30358C87.9178 2.0889 88.1328 2.23753 88.0832 1.92376C87.411 2.00464 86.7345 2.046 86.0574 2.04762C85.9748 1.94853 85.9169 1.93202 85.8921 1.83294C85.8342 1.89074 85.644 1.91551 85.6109 2.05587C85.6109 2.05587 85.5448 1.93202 85.5035 1.92376C85.4621 1.91551 85.429 2.22927 85.2719 2.1467C85.2923 2.10564 85.303 2.06043 85.303 2.01459C85.303 1.96875 85.2923 1.92354 85.2719 1.88248C85.2058 2.11367 85.0487 2.12193 84.9412 2.22101C84.9624 2.168 84.9624 2.10889 84.9412 2.05587C84.8668 2.3201 84.6684 2.05587 84.5857 2.2623V2.09716C84.3294 1.99808 84.6353 2.42744 84.4286 2.38615C84.4286 2.3201 84.4286 2.27056 84.4286 2.21276C84.3624 2.52652 84.0813 2.53478 83.9738 2.69992C83.9769 2.678 83.9769 2.65577 83.9738 2.63386C83.8332 2.74946 83.61 2.7412 83.5025 2.95588C83.4116 2.95588 83.3454 2.61735 83.2048 2.76597C83.3619 3.03019 82.9899 3.04671 83.271 3.2779C83.1056 3.2779 82.8493 3.37699 82.8162 3.52561C82.8162 3.38524 82.5268 3.26965 82.6261 3.17056L82.4276 3.08799C82.3615 2.98065 82.5434 3.08799 82.4276 2.94763C82.3697 3.00542 82.2788 3.2201 82.2044 3.22836C82.2044 3.45956 82.3697 3.79809 82.254 3.96323C82.254 3.80635 81.9729 3.75681 81.9894 3.67424C82.05 3.88163 82.1217 4.0856 82.2044 4.28525C82.2044 4.34305 82.0142 4.12837 82.0142 4.28525C82.0142 4.44213 82.0803 4.40085 82.1134 4.4669C82.1465 4.53296 81.9977 4.71461 81.7413 4.54122C81.6339 4.48342 81.7413 4.41736 81.6339 4.40085C81.5264 4.38433 81.6339 4.57424 81.5594 4.67333C81.4768 4.67333 81.5594 4.94581 81.7083 4.97058C81.7083 4.97058 81.5512 4.87975 81.7083 4.87149C81.7512 4.92551 81.7746 4.99244 81.7746 5.0614C81.7746 5.13036 81.7512 5.1973 81.7083 5.25131C81.7083 5.19352 81.6256 5.14397 81.5677 5.08617C81.6354 5.29095 81.6634 5.50671 81.6504 5.72196C81.7661 5.80453 81.4519 5.54031 81.5346 5.55682C81.237 5.64765 81.5346 6.08527 81.2204 6.11829C81.2204 6.11829 81.4106 6.19261 81.3775 6.17609C81.3445 6.15958 81.1295 6.17609 81.1626 6.26692C81.0551 6.22563 81.1626 6.35775 81.1626 6.44031C81.1626 6.52288 81.1047 6.44031 81.1129 6.37426C81.1601 6.49386 81.1735 6.6241 81.1516 6.75078C81.1298 6.87745 81.0735 6.9957 80.9889 7.09261C81.0633 7.09261 81.237 7.30729 81.2204 7.34858L81.0385 7.28252C80.9145 7.28252 81.0385 7.45592 80.8484 7.42289C81.0468 7.58803 80.7657 6.9605 80.9062 7.15041C80.7409 7.15041 81.146 7.42289 80.9062 7.33206C80.9062 7.43941 81.0716 7.57977 80.9062 7.63757C80.9062 7.63757 80.6582 7.50546 80.6582 7.59629C80.6582 7.68711 80.7409 7.65409 80.7822 7.7862L80.8484 7.87702C81.0303 7.87702 80.8484 8.00088 81.0137 7.97611C80.8649 7.97611 81.0716 8.19079 80.7739 8.1495L80.5424 8.09996C80.5424 8.16602 80.7822 8.23207 80.8897 8.28987C80.8544 8.29861 80.8175 8.29861 80.7822 8.28987C81.146 8.28987 80.7409 8.4385 81.022 8.52932C80.8814 8.65318 81.022 8.8596 80.7739 8.92566C80.898 9.02474 81.0303 9.10731 80.9558 9.23116C80.9405 9.21383 80.9212 9.20032 80.8997 9.19172C80.8782 9.18311 80.8549 9.17966 80.8318 9.18162C80.7243 9.25593 80.8318 9.27245 80.8897 9.33025C80.8236 9.33025 80.6913 9.50364 80.5755 9.60273C80.6995 9.69355 80.8897 9.60273 81.0137 9.60273C80.6747 9.75961 81.2783 9.84218 81.0137 10.0156C80.9558 10.0156 80.807 9.90823 80.7326 10.0156C80.4019 10.189 81.0468 10.1477 80.9145 10.3376L81.1956 10.222C81.0303 10.3376 81.4189 10.3871 81.1129 10.4532C81.2287 10.4532 81.1129 10.6514 81.3527 10.5523C81.1956 10.866 81.6835 11.0312 81.2783 11.378C81.3445 11.378 81.3362 11.4936 81.4602 11.378C81.5842 11.2624 81.3197 11.378 81.4106 11.2871C81.5016 11.1963 81.5098 11.2871 81.5512 11.2871C81.5925 11.2871 81.5512 11.4523 81.2783 11.4936C81.1956 11.733 81.791 11.4275 81.7992 11.6587C81.6917 11.7165 81.6587 11.7495 81.7083 11.7908H81.9481C81.9481 11.9312 81.7579 12.0055 81.5842 12.1211C81.6587 12.1624 81.7 12.2532 81.8488 12.1954L81.6917 12.4183C81.8075 12.2532 81.8323 12.4183 81.8984 12.4183H81.8323C81.7744 12.4844 81.8323 12.5257 81.915 12.5422C81.9484 12.5111 81.9735 12.4722 81.988 12.4289C82.0024 12.3856 82.0057 12.3394 81.9977 12.2945C82.0969 12.2945 82.1134 12.2945 82.2292 12.2945C82.0555 12.4018 82.2292 12.4761 82.2292 12.5422C82.2292 12.6083 82.4194 12.4844 82.4276 12.5422C82.4359 12.6 82.4855 12.633 82.3449 12.6908C82.2044 12.7486 82.3449 12.5835 82.2871 12.6165C82.2292 12.6495 82.1134 12.8147 82.2871 12.7982C82.4607 12.7817 82.5764 12.5257 82.5682 12.7073C82.5004 12.7307 82.4341 12.7583 82.3697 12.7899V12.955L82.5103 12.8312C82.5103 12.8807 82.469 12.8807 82.4524 12.9055C82.6261 12.7982 82.6261 13.0046 82.7997 12.9055C82.8576 12.9055 82.7997 13.0789 82.7997 13.1367C82.7997 13.2606 82.9072 13.2771 83.0312 13.2275C83.059 13.2543 83.096 13.2692 83.1346 13.2692C83.1731 13.2692 83.2102 13.2543 83.2379 13.2275C83.2379 13.4009 82.8328 13.789 83.0726 13.6817C83.1635 13.7395 83.4033 13.5083 83.4446 13.3927C83.519 13.6073 83.8498 13.4752 83.8415 13.789C83.8994 13.7395 83.9159 13.6982 83.9821 13.6817C84.164 13.9046 84.5609 13.7395 84.5939 14.1688C84.4947 14.1688 84.5195 14.334 84.4782 14.433C84.6022 14.3092 84.4782 14.6147 84.6187 14.367C84.7593 14.1193 84.7097 14.144 84.6684 14.0532C84.755 14.0292 84.8475 14.0389 84.9272 14.0802C85.007 14.1216 85.0681 14.1916 85.0983 14.2762C85.0913 14.2455 85.0948 14.2133 85.1083 14.1849C85.1218 14.1564 85.1445 14.1333 85.1727 14.1193C85.0818 14.367 85.1727 14.4496 85.2968 14.3752L85.3464 14.2184V14.4C85.3464 14.3587 85.4704 14.078 85.5117 14.2514C85.4999 14.3086 85.4999 14.3676 85.5117 14.4248C85.6358 14.3174 85.7928 14.1358 85.859 14.2762V14.5239C85.9003 14.5239 85.9913 14.3752 85.9334 14.2927C86.074 14.4578 86.1815 14.4991 86.2063 14.7055C86.3214 14.5395 86.4808 14.4089 86.6664 14.3287C86.8519 14.2484 87.0563 14.2216 87.2564 14.2514V14.367C87.3473 14.4743 87.2564 14.1523 87.3473 14.2349C87.4383 14.3174 87.4383 14.4826 87.3473 14.6312C87.4961 14.7551 87.4961 14.4 87.5706 14.334C87.645 14.2679 87.5127 14.4496 87.5044 14.2431C87.5044 14.1853 87.6946 14.3422 87.678 14.1028C87.7028 14.2226 87.7028 14.3462 87.678 14.4661L87.7442 14.3422C87.8848 14.6064 87.5954 14.8707 87.7442 15.1679L87.8186 15.1184C87.9426 15.3496 87.645 15.4321 87.8682 15.4817C87.9093 15.3909 87.9306 15.2923 87.9306 15.1927C87.9306 15.093 87.9093 14.9945 87.8682 14.9037C88.0336 14.8129 87.8682 14.334 88.0253 14.3174C88.0997 14.4496 87.893 14.3752 87.9674 14.5652C88.0419 14.7551 88.108 14.4165 88.199 14.4661C88.0915 14.4 88.108 14.144 88.1493 14.0945C88.2568 14.1771 88.1493 14.3257 88.2734 14.3174C88.2734 14.1771 88.3395 14.0532 88.2238 13.9872C88.2238 13.6734 88.3643 14.0367 88.3643 13.789C88.4635 13.9872 88.3643 14.3092 88.5462 14.3835C88.4718 14.1853 88.6206 14.0532 88.4635 13.7725C88.4902 13.8582 88.4931 13.9495 88.4718 14.0367C88.5876 14.1275 88.4718 13.6073 88.6868 13.9954L88.6289 13.7807L88.8108 13.9707C88.877 13.9707 88.8935 13.6239 89.0175 13.9211C89.0175 13.8798 89.1746 13.8303 89.0175 13.6486C88.8604 13.467 89.0175 13.8468 88.8191 13.5908C88.9762 13.789 88.9266 13.5 88.9348 13.4009L88.9927 13.5165C88.9927 13.4587 89.0754 13.4505 88.9927 13.3184C88.9958 13.3515 89.0064 13.3836 89.0236 13.4122C89.0407 13.4408 89.0641 13.4651 89.0919 13.4835L89.0341 13.2936C89.1002 13.1532 89.216 13.5826 89.2987 13.4835V13.6569C89.2987 13.6156 89.4309 13.7642 89.4558 13.6569L89.2738 13.1532C89.2738 13.0541 89.4061 13.3101 89.3648 13.1532V13.3844C89.3648 13.4422 89.5632 13.5991 89.6459 13.5413C89.7286 13.4835 89.6459 13.1945 89.4806 13.1615C89.4806 13.1615 89.6377 13.1615 89.6707 13.3184C89.7369 13.211 89.555 13.1697 89.5715 13.0294C89.6707 13.1119 89.8609 13.1697 90.018 13.2688L90.109 13.5661H90.1668C90.233 13.8138 90.3157 13.6817 90.4149 13.9129C90.481 13.9129 90.481 13.8055 90.481 13.7312C90.1255 13.4917 90.2743 13.1945 90.018 12.9055C90.0924 12.7321 90.6712 13.5165 90.448 12.955C90.3653 12.9055 90.2412 12.633 90.233 12.7899C90.3405 12.7899 90.0428 12.4679 90.233 12.4927C90.233 12.6743 90.5637 12.6991 90.6051 12.9468C90.5306 12.856 90.481 12.9468 90.4893 12.9468C90.4976 12.9468 90.7291 13.2275 90.82 13.145C90.911 13.0624 90.9275 12.9881 90.82 12.8642C90.7125 12.7404 90.7456 12.955 90.6381 12.7734C90.696 12.6248 90.9358 12.8312 90.7125 12.5257C90.6712 12.6165 90.5058 12.4761 90.3983 12.3688C90.4027 12.3249 90.4027 12.2806 90.3983 12.2367L90.481 12.3523C90.6629 12.3027 90.3322 12.1376 90.481 12.055L90.7373 12.1872C90.8862 12.3771 90.5058 12.2862 90.8035 12.5257C90.8862 12.4596 90.8035 12.3027 90.9027 12.2945C90.9027 12.3358 90.9027 12.3605 90.9027 12.4018C90.9027 12.4431 91.3492 12.6908 91.2335 12.4018C91.2335 12.2697 91.1342 12.3027 91.0267 12.2119C91.0929 12.0468 91.0267 11.9147 91.0267 11.8238C91.2417 12.0055 91.159 11.6917 91.3244 11.9477C91.1508 11.8982 91.0267 12.0963 91.2004 12.3193C91.374 12.5422 91.0764 12.3936 91.3079 12.633C91.4154 12.5339 91.6551 12.7486 91.837 12.8642C91.837 12.8642 91.837 12.7404 91.837 12.6991C91.6882 12.567 91.6634 12.6083 91.498 12.4844C91.5295 12.453 91.5545 12.4156 91.5716 12.3745C91.5886 12.3335 91.5974 12.2894 91.5974 12.2449C91.5974 12.2005 91.5886 12.1564 91.5716 12.1154C91.5545 12.0743 91.5295 12.0369 91.498 12.0055C91.6138 12.0055 91.7709 12.1459 91.7461 12.2119C91.8167 12.0217 91.9365 11.8537 92.0934 11.7248C91.7461 11.667 92.0934 11.5101 91.8453 11.4523C91.7638 11.4695 91.6794 11.4672 91.599 11.4457C91.5185 11.4242 91.4443 11.384 91.3823 11.3284C91.4319 11.3284 91.5063 11.4027 91.5807 11.4193C91.465 11.2706 91.8949 11.4605 91.6717 11.2541C91.6717 11.4605 92.019 11.4771 92.2339 11.6257C92.1595 11.4358 92.391 11.7165 92.4489 11.6257C92.3853 11.4569 92.3544 11.2776 92.358 11.0972C92.6473 11.0229 92.5233 10.6679 92.5647 10.5192C92.606 10.3706 92.9781 10.6183 93.0525 10.5192C93.1269 10.4202 92.7218 10.5192 92.8954 10.3954H92.945C92.8954 10.3376 93.2179 10.1477 92.821 10.0073L93.1186 10.1229C93.1186 10.1229 93.1186 10.0569 93.0608 10.0238C93.16 10.0238 93.2675 10.0238 93.3171 10.0899C93.5651 10.0321 93.3171 9.85869 93.3171 9.75135L93.1186 9.79264C93.0029 9.57795 93.2096 9.47887 93.1683 9.2807H93.3502L93.2509 9.15685C93.4246 9.19814 93.5403 9.10731 93.3998 9.033C93.5403 9.14034 93.6892 9.25593 93.8297 9.37979C93.7057 9.4541 93.6148 9.26419 93.4328 9.29722C93.2509 9.33025 93.2923 9.50364 93.4328 9.55318C93.4328 9.48713 93.4328 9.47887 93.3667 9.42107C93.623 9.42107 93.5982 9.52841 93.7553 9.61098C93.7553 9.5697 93.838 9.52841 93.7553 9.5119C93.8022 9.54187 93.8381 9.58628 93.8575 9.63842C93.8769 9.69057 93.8788 9.7476 93.8628 9.80089C93.7801 9.70181 93.6974 9.80089 93.6313 9.80089C93.8545 9.85043 93.9041 9.98255 93.8132 10.1229C93.5321 10.1807 93.9041 10.4449 93.8132 10.6101C93.6459 10.5161 93.504 10.3829 93.3998 10.222C93.2592 10.3046 93.3998 10.3459 93.2344 10.4202C93.3832 10.511 93.6313 10.6183 93.6892 10.7917H93.5238C93.5238 10.9404 93.7967 11.0229 93.6974 11.1715C93.5982 11.3202 93.408 11.7082 93.284 11.8982L93.1269 11.8321C93.3998 12.1046 93.0608 12.2697 93.1269 12.4844C92.8458 12.6495 92.9202 13.1202 92.5895 13.0624C92.5033 13.3005 92.3895 13.5277 92.2505 13.7395C92.1175 13.9605 91.9402 14.1517 91.7296 14.3009L91.6303 14.0615C91.6799 14.2514 91.4898 13.9954 91.4484 14.0615C91.6551 14.1358 91.5228 14.334 91.5642 14.4908C91.2665 14.4908 91.1425 14.8376 91.0598 15.1101L90.9606 14.978C90.9606 15.3578 90.572 15.267 90.3157 15.3578C90.2578 15.3165 90.142 15.1927 90.0841 15.2505C90.0841 15.5477 89.9932 15.5642 89.8692 15.812C89.6802 15.8983 89.4676 15.9187 89.2656 15.8697C88.8191 16.4477 88.1328 16.3487 87.5375 16.6542L87.4713 16.4643C86.8843 16.9432 86.0988 16.5551 85.5613 16.6872L85.6523 16.3652C85.5117 16.2331 85.2802 16.3652 85.2719 16.6376C85.1314 16.5138 84.8255 16.7202 84.7841 16.423C84.6353 16.3156 84.5443 16.522 84.3872 16.522C84.1696 16.3553 83.9083 16.2549 83.6348 16.2331L83.701 16.2826C83.7588 16.2248 83.8167 16.0927 83.7506 16.0431C83.6844 15.9936 83.3785 15.7954 83.3289 16.2083C83.1139 15.8532 82.502 16.0184 82.3532 15.556C82.3532 15.6633 82.2374 15.6386 82.1713 15.6798C81.8819 15.5312 81.7744 15.1349 81.4602 15.1349C81.4602 15.0688 81.6339 15.0358 81.5429 14.9532C81.452 14.8707 81.4519 15.0688 81.3445 15.0606C81.1047 14.9529 80.9092 14.7664 80.7905 14.5321C80.6956 14.3053 80.5674 14.0938 80.4101 13.9046C79.787 13.3682 79.3045 12.6879 79.0045 11.9229H79.0872C78.6986 11.7908 79.1699 11.2459 78.6572 11.1963C78.7068 11.1137 78.6572 10.9569 78.7895 10.9569C78.5332 10.8082 78.7895 10.3624 78.5249 10.1312C78.5249 10.1312 78.5249 10.1725 78.5745 10.1972C78.7151 9.86695 78.4092 9.64401 78.5745 9.31373C78.5745 9.31373 78.6407 9.3963 78.7234 9.3963C78.8061 9.3963 78.3678 9.13208 78.7234 9.04951C78.7234 8.98345 78.5332 9.04951 78.5415 9.04951C78.649 8.36418 78.4753 7.62932 78.5415 6.88619C78.897 6.43206 79.1864 7.01004 79.0045 6.54765C79.0872 6.54765 78.8639 6.48986 78.9466 6.54765C78.8805 6.35775 79.4262 6.44031 79.2691 6.28343C79.021 6.28343 79.1616 6.17609 79.0293 6.12655C79.2856 5.8871 79.4923 5.91187 79.4179 5.62288L79.5254 5.68893C79.327 5.2926 79.6329 5.06966 79.4014 4.66507C80.1038 3.16553 81.238 1.90924 82.6591 1.05678C83.3995 0.700671 84.1755 0.423894 84.9743 0.231089C85.7921 0.058387 86.637 0.058387 87.4548 0.231089C87.8021 0.602652 87.8186 0.602652 88.2816 0.528339C88.2816 0.577881 88.2238 0.586138 88.2816 0.643936C88.3561 0.371457 88.571 0.643936 88.6703 0.437513C89.2502 0.588837 89.8193 0.779181 90.3735 1.00724C90.2743 1.00724 90.1338 1.17238 90.2495 1.20541L90.4314 1.10633V1.18064C90.5224 1.18064 90.6629 1.09807 90.6299 0.982471C91.384 1.26555 92.047 1.74786 92.5481 2.3779C93.0279 2.985 93.4723 3.61907 93.8793 4.27699C94.0486 4.66883 94.2622 5.04005 94.516 5.38343C94.5427 6.48934 94.6394 7.59246 94.8054 8.6862C94.8054 8.6862 94.0778 8.45501 93.8959 8.05042Z" fill="white"/>
<path d="M94.0695 8.91733C93.9372 8.91733 93.8545 9.05769 93.6809 8.91733C93.8103 8.90972 93.9401 8.90972 94.0695 8.91733Z" fill="white"/>
<path d="M92.0362 11.3209C92.0362 11.3209 91.9697 11.3209 91.9448 11.3209C91.9198 11.3209 91.8616 11.2045 91.9448 11.2211C92.0279 11.2377 91.9863 11.2876 92.0362 11.3209Z" fill="white"/>
<path d="M91.6386 11.8486C91.5975 11.807 91.5682 11.7553 91.5537 11.6988C91.5392 11.6422 91.5399 11.5828 91.5559 11.5266L91.6386 11.8486Z" fill="white"/>
<path d="M90.8951 12.023C90.787 12.023 90.7537 11.9482 90.787 11.8983C90.8203 11.8484 90.8535 11.9731 90.8951 12.023Z" fill="white"/>
<path d="M91.0773 12.2288C91.0773 12.2288 90.9775 12.2288 90.911 12.2288C90.9942 12.2704 90.9526 12.0792 91.0773 12.2288Z" fill="white"/>
<path d="M89.9525 12.815C89.9525 12.815 89.9525 12.9563 89.8444 12.8649C89.9275 12.923 89.861 12.6654 89.9525 12.815Z" fill="white"/>
<path d="M89.5962 13.2853C89.5726 13.2694 89.5544 13.2466 89.5441 13.22C89.5338 13.1935 89.5318 13.1644 89.5384 13.1367L89.5962 13.2853Z" fill="white"/>
<path d="M80.8981 10.0073L80.973 10.0572L80.8566 10.0738L80.8981 10.0073Z" fill="white"/>
<path d="M81.733 5.27627C81.733 5.17652 81.8495 5.27627 81.8744 5.27627C81.8993 5.27627 81.758 5.20145 81.733 5.27627Z" fill="white"/>
<path d="M83.3454 2.94763L83.3289 2.95589L83.2131 2.74121L83.3454 2.94763Z" fill="white"/>
<path d="M101.701 40.8057L142.415 53.5709C144.587 83.6427 147.252 114.312 150.41 145.578C156.612 206.68 164.351 265.304 173.214 321.402C168.94 313.723 163.4 306.49 157.381 306.853C150.766 307.249 148.715 316.604 142.812 316.34C134.543 315.969 128.334 297.06 127.275 293.823C123.778 283.147 124.241 275.518 120.661 274.601C118.139 273.957 115.154 277.02 113.062 279.654C109.286 200.041 105.499 120.425 101.701 40.8057Z" fill="white" stroke="white" stroke-miterlimit="10"/>
<path d="M71.7035 40.8057L105.604 111.254C111.747 156.147 96.2606 195.681 67.3874 210.197C61.0951 213.359 50.1974 217.323 34.3882 216.2C34.4855 206.647 35.2147 197.112 36.5711 187.655C40.2753 161.745 45.7821 156.898 46.4932 138.94C46.6751 134.522 46.5428 129.807 39.5973 96.5979C35.8352 78.5895 32.4617 63.6692 30.006 53.0837L71.7035 40.8057Z" fill="white" stroke="white" stroke-miterlimit="10"/>
<path d="M29.3363 56.1472L0.438232 208.141C2.49056 211.069 5.42448 213.266 8.81341 214.414C12.2023 215.562 15.8696 215.6 19.2819 214.524L42.6484 111.312C41.2868 105.147 39.9088 98.976 38.5142 92.7998C38.233 90.8759 37.77 87.9778 37.0507 84.4768C35.521 77.0456 34.5701 75.3942 32.9165 68.3345C30.808 59.3261 30.2375 53.0261 29.6753 53.0839C29.5099 53.1334 29.3611 53.9261 29.3363 56.1472Z" fill="white" stroke="white" stroke-miterlimit="10"/>
<path d="M21.7046 442.787C20.7372 442.845 22.2337 443.002 21.0762 442.878C21.167 442.816 21.2708 442.775 21.3798 442.759C21.4887 442.744 21.5998 442.753 21.7046 442.787Z" fill="white"/>
<path d="M24.276 442.795C27.1699 441.466 31.3289 441.218 34.5949 440.17C34.9835 440.062 34.5949 440.525 35.4217 440.269C38.5803 439.137 43.7811 438.51 47.8243 438.27L47.6011 438.411C48.37 438.361 49.2548 437.899 50.0816 437.825C50.0816 437.891 49.8418 437.948 50.0816 438.014C50.2552 437.792 51.5203 437.709 51.8428 437.519C52.1735 437.519 52.1652 437.701 52.5869 437.734L53.0169 437.445C54.2241 436.743 56.1341 437.065 57.8539 436.619C57.7795 436.677 57.6141 436.735 57.7547 436.768C60.5328 436.099 64.0717 435.769 67.222 435.356C67.1062 435.447 66.9987 435.603 67.222 435.67C67.3625 435.422 68.3299 435.273 69.1733 435.149C69.5785 435.356 70.612 434.803 71.6538 434.86L71.5711 434.918C72.2822 434.604 72.6708 434.976 73.2248 434.629L73.7044 434.786C74.002 434.423 74.7793 434.885 75.3581 434.67V434.604C75.9286 434.481 76.2345 434.604 76.7637 434.538H76.8216C78.0618 434.365 78.7977 434.538 78.7481 434.258C79.2029 434.439 77.5492 434.423 78.252 434.695C80.2943 434.431 82.3862 434.274 84.4616 434.167C86.5478 434.08 88.6372 434.105 90.7207 434.241C91.0103 434.287 91.2899 434.382 91.5476 434.522C92.1938 434.534 92.8401 434.503 93.4824 434.431C93.3501 434.431 93.747 434.58 93.9619 434.604C94.7061 434.745 94.7888 434.357 95.6156 434.522C95.2849 434.571 95.1691 434.654 95.2683 434.761C96.0903 434.651 96.921 434.621 97.7489 434.67C97.6166 434.67 97.4181 434.72 97.4429 434.803C98.369 434.629 99.0966 434.968 99.9234 434.877L99.6093 435.001C100.874 435.281 100.014 434.712 101.114 434.902C100.841 434.902 100.932 435.001 100.883 435.059C102.132 434.959 103.387 434.959 104.636 435.059C104.579 435.059 104.587 435.116 104.587 435.116C105.711 435.182 106.877 435.372 108.126 435.372C108.564 435.488 107.944 435.727 109.134 435.793C109.134 435.488 111.16 435.876 110.49 435.463C111.583 435.674 112.688 435.814 113.798 435.884C113.327 435.95 114.244 436.314 113.401 436.248L114.013 436.503C113.905 436.619 113.368 436.388 113.55 436.57C114.23 436.587 114.909 436.639 115.584 436.726C116.511 436.522 117.463 436.447 118.412 436.503C117.8 436.545 118.709 436.883 118.296 436.883L120.131 436.537C120.553 436.537 120.189 436.784 120.809 436.792C120.809 436.71 121.057 436.693 121.256 436.652C121.454 436.611 123.009 436.826 123.149 437.156C123.315 437.296 122.455 437.114 122.901 437.288C123.679 437.403 123.728 437.288 124.505 437.412V437.461C125.01 437.577 126.027 437.56 125.498 437.313C125.142 437.247 125.605 437.511 125.092 437.313C125.782 437.229 126.48 437.26 127.16 437.403C126.887 437.403 126.911 437.494 126.787 437.56C127.911 437.522 129.036 437.569 130.153 437.701C130.194 437.56 129.681 437.882 129.524 437.775C130.971 438.221 132.641 438.023 133.824 438.535C133.617 438.535 133.749 438.32 133.758 438.361C134.469 438.502 134.394 438.708 134.874 438.716C134.874 438.848 135.469 438.791 135.949 438.84C136.213 438.84 136.065 438.923 135.643 438.84C137.298 438.948 138.939 439.224 140.538 439.666C140.985 439.577 141.446 439.577 141.894 439.666L141.712 439.823C142.018 440.004 142.903 440.054 142.927 440.227C143.754 440.161 139.984 439.815 141.042 439.848C141.274 440.054 142.522 439.848 142.249 440.054C142.958 440.099 143.659 440.235 144.333 440.459C144.143 440.384 143.705 440.591 144.275 440.698C145.284 440.888 144.581 440.698 145.408 440.789L145.937 440.83C146.011 440.657 146.83 441.053 146.499 440.764C146.59 440.946 147.979 441.004 147.806 441.284L147.616 441.482C147.996 441.504 148.378 441.467 148.748 441.375C148.798 441.375 148.905 441.482 148.872 441.515C149.029 441.177 149.898 441.788 150.476 441.631C151.13 441.887 152.072 442.069 152.676 442.283L159.927 444.843L152.486 444.075C152.304 444.069 152.124 444.03 151.956 443.959C151.239 444.108 150.505 444.164 149.774 444.125C149.931 444.125 150.154 444.075 150.204 444.001C149.835 443.93 149.456 443.947 149.096 444.05C148.573 443.896 148.039 443.78 147.5 443.704C146.789 443.811 147.037 444.009 146.962 444.133C146.309 443.77 144.953 444.364 144.143 444.034C144.391 443.984 145.176 443.86 144.589 443.77C143.936 443.406 143.275 444.034 142.225 443.86L142.489 444.158C142.018 443.976 140.943 444.339 141.05 444.026C140.695 444.141 139.81 443.926 139.926 444.224C138.206 443.976 135.742 444.372 134.684 443.844C134.436 443.893 133.857 443.844 133.948 444.001C134.361 444.158 134.518 443.877 134.675 444.001C134.452 444.001 134.403 444.092 134.378 444.133C133.84 444.059 133.427 444.042 133.931 443.794C132.741 443.613 132.699 444.298 131.186 444.182C131.252 444.059 131.137 444.017 130.698 444.034L129.872 444.24C128.888 444.191 129.318 443.968 129.293 443.761C128.818 443.743 128.343 443.801 127.887 443.935L127.25 443.679C127.714 443.869 126.821 443.803 126.572 443.852L126.821 443.803C126.487 443.747 126.146 443.747 125.812 443.803C125.886 443.935 126.506 443.984 126.837 444.017C126.572 444.108 126.159 444.092 125.804 444.199C125.919 443.993 124.977 444.05 124.53 444.034C124.084 444.017 123.993 444.215 123.852 444.207C123.852 444.1 123.075 444.207 123.447 444.042C123.612 444.042 123.819 444.141 124.092 444.042C123.769 443.968 123.811 443.786 123.158 443.918C122.662 444.017 123.282 444.315 122.331 444.182C122.499 444.138 122.66 444.071 122.81 443.984L121.984 443.877L121.942 444.059C121.826 444.059 121.942 444.001 121.851 443.976C121.595 444.166 120.52 444.034 120.322 444.249C119.87 444.225 119.42 444.176 118.974 444.1H119.048C118.498 444.002 117.932 444.03 117.395 444.182C116.958 444.165 116.522 444.207 116.096 444.306C115.385 444.166 115.857 443.613 115.071 443.844C114.352 443.844 113.938 444.182 114.244 444.298C112.954 444.174 111.483 444.471 110.284 444.191C110.094 444.265 110.209 444.306 109.829 444.356C107.927 444.282 105.811 444.571 104.297 444.207C104.851 444.133 104.297 444.026 104.297 443.918C103.843 444.083 103.752 443.753 103.586 444.034C103.636 444.199 103.586 444.282 104.124 444.348C102.962 444.456 101.791 444.434 100.635 444.282C100.949 444.356 100.709 444.405 100.461 444.455C100.544 444.191 99.7085 444.149 99.0718 444.249L98.9808 444.405L98.5674 444.24C98.3276 444.298 98.3028 444.579 97.6744 444.422C97.6572 444.383 97.6321 444.349 97.6008 444.32C97.5695 444.292 97.5327 444.27 97.4925 444.257C96.7482 444.465 95.9724 444.538 95.2022 444.471L94.6151 444.24C94.3175 444.24 93.7883 444.405 94.3423 444.471C93.5363 444.452 92.7361 444.33 91.961 444.108C89.4701 444.545 86.9383 444.706 84.4119 444.587L84.4864 444.471C83.8332 444.356 84.1474 444.678 83.6595 444.595C83.8662 444.48 83.1634 444.348 83.6595 444.207C82.7252 444.075 82.4523 444.414 81.8487 444.471C81.7578 444.628 82.3366 444.364 82.2208 444.571C82.1133 444.628 80.9227 444.447 80.7821 444.686C80.5506 444.595 80.7325 444.414 80.8565 444.315L80.286 444.43C79.5915 444.149 81.8735 443.935 81.1129 443.604H80.5837C80.0793 443.357 81.9728 443.324 80.6581 443.241C80.0793 443.357 79.5915 443.704 80.1041 443.811C78.9135 443.877 79.5501 444.381 78.2685 444.364C77.9213 444.224 79.2938 444.364 79.0458 444.133C78.4422 443.935 77.8386 444.24 77.3011 444.174C77.8965 444.265 77.3921 444.504 77.0035 444.546C76.3585 444.438 77.4334 444.323 76.5074 444.298C76.3585 444.438 75.5069 444.537 76.2428 444.637C75.9038 444.95 75.2754 444.546 74.7793 444.793C74.4734 444.571 75.7301 444.282 74.7131 444.174C74.8702 444.389 73.4646 444.463 74.002 444.777C73.5969 444.719 73.5556 444.546 73.8449 444.414C73.2827 444.29 72.4724 444.81 72.2822 444.414L72.0921 444.637C71.9101 444.562 71.6538 444.513 71.3644 444.389C70.8683 444.389 69.7108 444.686 69.8017 444.389C69.6363 444.389 68.4953 444.389 68.9749 444.637C69.6777 444.777 69.8017 444.471 70.182 444.777C69.6777 444.529 69.1568 444.777 68.7516 444.893L68.6855 444.769C68.4374 444.818 67.8586 444.769 67.7181 444.926C67.9082 444.859 67.809 444.769 67.6188 444.736L67.3625 444.934C66.3703 445.025 67.1227 444.595 66.1636 444.645L66.8912 444.496C66.5776 444.438 66.2594 444.407 65.9404 444.405C65.7585 444.587 65.4277 444.802 65.2706 444.934C64.7249 445.016 65.0226 444.736 64.4934 444.934L65.1962 444.719C65.2954 444.661 64.7166 444.43 63.989 444.43C63.526 444.496 62.8066 444.752 63.5425 444.843C63.1705 444.843 62.6578 444.744 62.9555 444.612C62.1286 444.678 63.063 444.802 62.3436 444.909C62.0542 444.793 61.1447 444.628 60.599 444.455L61.3431 444.158H60.847C61.492 443.918 60.5246 443.976 60.847 443.728C60.4882 443.715 60.1293 443.751 59.7804 443.836C60.7644 444.24 58.6725 444.389 58.9536 444.752C57.5976 444.851 58.1267 443.86 56.6963 444.43C56.9278 444.529 56.2581 444.81 57.118 444.703C56.2912 444.703 56.5392 445.066 55.547 444.917C56.2829 444.769 54.7202 444.546 55.8199 444.331C55.7454 444.447 56.4152 444.422 56.5806 444.389C56.2333 444.249 56.6467 444.017 55.7537 444.017C55.2245 444.059 54.5052 444.059 54.6127 444.249C54.7202 444.438 55.4395 444.249 55.0757 444.438C54.0256 444.513 53.852 444.199 53.422 444.562C54.0835 444.562 54.2489 444.752 54.2489 444.893L53.4799 444.983L53.6287 444.843C52.3967 444.744 53.2649 445.099 52.066 445.058L51.512 444.785C51.7932 444.546 53.2484 444.893 53.0334 444.504C52.4462 444.572 51.855 444.6 51.264 444.587C51.4293 444.587 51.6526 444.587 51.818 444.504C51.5368 444.504 51.2557 443.984 50.1643 444.282C49.5938 444.397 50.0154 444.422 49.9989 444.562C48.7504 444.612 48.3452 444.752 47.5763 444.777C47.7416 444.496 46.1541 444.777 47.0388 444.463C47.9227 444.639 48.836 444.599 49.7013 444.348C49.2465 444.009 50.6769 444.348 50.9498 444.05C49.941 444.05 49.9906 443.72 49.8335 443.505C49.5927 443.508 49.3533 443.544 49.1225 443.613C48.9984 443.811 49.3622 443.811 49.3871 444.017C48.4423 443.954 47.4935 444.04 46.5758 444.273C46.2037 444.174 46.3195 443.976 46.766 443.951C45.4348 444.009 44.0126 443.951 42.7475 443.951C43.5744 444.282 41.3419 444.026 41.9207 444.298C42.5987 444.372 43.1775 444.612 42.8054 444.76C42.3837 444.76 42.8054 444.612 42.64 444.546C42.1026 444.719 41.8132 444.257 41.2758 444.546C42.4912 444.438 41.5155 444.141 41.7388 443.885C40.8623 444.034 41.7388 443.704 40.912 443.704C40.0355 443.844 38.9606 443.96 37.9932 444.017C36.618 443.892 35.2342 443.892 33.859 444.017C33.2885 443.893 33.6771 443.596 33.0322 443.547C32.3872 443.497 33.5696 443.86 32.4947 443.728L32.6022 443.671C32.2798 443.737 30.6343 443.472 30.3119 443.893L30.6426 443.571C30.4574 443.568 30.2729 443.596 30.0969 443.654C30.0969 443.547 29.8488 443.456 30.1796 443.39C29.4787 443.275 28.7637 443.275 28.0629 443.39L28.5342 443.58C27.2939 443.728 26.4671 443.58 25.2764 443.58L25.3178 443.398L24.6067 443.505C24.7803 443.332 24.1271 443.216 23.7798 443.365L25.6237 442.911C26.1363 443.018 25.0614 443.134 25.3839 443.315C25.8958 443.461 26.4407 443.437 26.9384 443.249C26.6791 443.226 26.4178 443.254 26.1694 443.332C26.0288 443.076 26.6738 443.093 26.9963 442.919C26.773 442.919 26.4588 442.853 26.4092 442.919C26.9336 442.791 27.4738 442.738 28.0133 442.762C27.5172 442.861 28.2779 442.919 28.0877 442.993C28.1456 442.771 28.8401 442.704 29.7414 442.762C30.3863 443.026 31.395 442.597 32.4617 442.671C31.9635 442.925 31.4273 443.095 30.8741 443.175C31.5273 443.282 31.6017 443.175 32.2467 443.282C32.6563 442.982 33.1387 442.797 33.644 442.746V442.919C34.413 442.828 34.413 442.581 35.3969 442.63C37.0506 442.713 38.8035 442.713 40.0851 442.729L40.1347 442.903C40.8458 442.539 42.5078 442.77 43.4421 442.605C45.0958 442.77 46.9892 442.448 47.8243 442.737C50.71 442.605 53.2236 442.482 56.2085 442.539L55.7124 442.787C56.2415 442.605 56.0596 442.927 56.5392 442.894C55.9356 442.696 57.2668 442.638 57.6389 442.49C59.044 442.612 60.4591 442.548 61.8475 442.3L61.8971 442.465C63.0878 442.151 64.5099 442.465 66.0313 442.465C66.3048 442.605 66.6087 442.676 66.916 442.671C67.7017 442.45 68.5079 442.309 69.3221 442.25C70.369 442.255 71.4149 442.313 72.4559 442.424C75.6971 442.044 79.0127 442.283 82.3779 442.06L82.6177 442.259C85.9251 441.837 89.9022 442.259 92.6969 442.003L92.424 442.341C93.3005 442.44 94.4167 442.25 94.1935 442.011C95.0699 442.11 96.3846 441.846 96.9386 442.126C97.5586 442.12 98.1763 442.051 98.7824 441.92C100.159 442.014 101.54 442.014 102.917 441.92H102.495C102.313 441.994 102.296 442.135 102.718 442.159C103.347 442.069 105.033 442.25 104.413 441.846C106.216 442.077 108.622 441.656 110.375 441.97C110.226 441.862 110.672 441.846 110.863 441.771C112.366 441.857 113.873 441.857 115.377 441.771C115.625 441.821 114.972 441.953 115.617 441.97C115.997 441.92 115.617 441.821 116.096 441.763C118.66 441.557 121.297 441.97 123.629 441.92C127.763 441.705 132.104 441.813 136.081 441.78L136.04 441.862C137.371 441.548 139.157 442.176 140.224 441.714C140.538 441.788 141.422 441.714 141.191 441.904C142.249 441.681 144.159 442.11 145.689 441.829C145.56 441.823 145.431 441.84 145.309 441.879C146.855 442.052 148.219 441.813 149.856 441.97C149.691 441.97 149.385 442.027 149.344 442.11C149.972 442.267 150.832 441.771 151.179 442.159C151.543 442.159 151.436 441.961 151.221 441.978H152.378L152.097 444.273C148.988 443.448 145.631 442.894 142.373 442.283C139.827 441.515 142.373 441.606 140.24 441.458C140.091 441.35 140.091 441.582 140.075 441.499C139.248 441.441 138.925 440.814 138.33 440.913C138.512 441.185 137.933 440.97 137.892 441.111C136.329 440.64 136.048 440.376 134.75 440.285L134.866 440.178C133.328 440.252 131.641 439.757 130.326 439.947C122.141 438.617 114.236 437.816 106.199 437.115C102.239 436.702 98.2946 436.437 94.3423 436.231L88.3808 435.95C86.4212 435.81 84.5277 435.901 82.4689 435.95C81.102 435.703 79.7016 435.703 78.3347 435.95C78.4174 435.892 78.5497 435.868 78.4091 435.826C78.3182 436.107 76.9373 435.942 76.7554 436.214C73.7623 436.363 71.0172 436.644 67.9496 436.933C68.4292 436.859 68.6524 436.611 68.0819 436.685L67.4948 436.916L67.3873 436.85C66.9987 436.925 66.5605 437.098 66.9987 437.148C59.3174 438.114 51.6939 438.568 44.2193 439.897C42.4251 440.079 39.9197 440.632 38.0015 441.045C32.3797 441.657 26.8164 442.72 21.3655 444.224C21.3655 444.224 21.936 443.505 24.276 442.795Z" fill="white"/>
<path d="M22.8704 442.762C23.0854 442.894 23.7634 442.969 23.2177 443.15C23.1515 443.026 22.8042 442.878 22.8704 442.762Z" fill="white"/>
<path d="M40.9782 444.149C40.9782 444.149 41.2345 444.207 41.2924 444.232C41.0692 444.232 40.8542 444.356 40.6805 444.282C40.9038 444.273 40.8707 444.224 40.9782 444.149Z" fill="white"/>
<path d="M45.6002 444.224C45.0662 444.395 44.5069 444.473 43.9465 444.455L45.6002 444.224Z" fill="white"/>
<path d="M49.9163 444.727C50.2883 444.835 50.1809 444.893 49.6848 444.884C49.6103 444.818 49.8088 444.785 49.9163 444.727Z" fill="white"/>
<path d="M50.2223 444.455C50.4669 444.447 50.7102 444.495 50.9333 444.595C50.9168 444.488 50.0982 444.661 50.2223 444.455Z" fill="white"/>
<path d="M59.5821 444.81C59.8053 444.81 60.2931 444.694 60.5081 444.81C60.2683 444.736 59.4084 444.983 59.5821 444.81Z" fill="white"/>
<path d="M63.9312 444.628C64.0519 444.645 64.1742 444.645 64.295 444.628C64.5513 444.686 64.295 444.769 64.0634 444.785L63.9312 444.628Z" fill="white"/>
<path d="M143.134 444.141L142.663 444.199L142.729 444.083L143.134 444.141Z" fill="white"/>
<path d="M127.54 437.288C127.06 437.288 127.234 437.123 127.16 437.098C127.581 437.148 126.978 437.214 127.54 437.288Z" fill="white"/>
<path d="M108.878 435.447L109.019 435.463L108.944 435.703L108.878 435.447Z" fill="white"/>
</g>
<defs>
<clipPath id="clip0_170_117">
<rect width="174" height="445" fill="white"/>
</clipPath>
</defs>
</svg>
