<svg xmlns="http://www.w3.org/2000/svg" viewBox="0 0 369.83 208.41"><defs><style>.cls-1{fill:#231f20;opacity:0.93;}</style></defs><g id="Layer_2" data-name="Layer 2"><g id="Layer_3" data-name="Layer 3"><path class="cls-1" d="M135.07,150.36c0,30.7-24.86,58-68.62,58-22.15,0-47.54-8.38-66.45-26l26.47-32.93c12.43,10.33,28.1,17.58,41.06,17.58,14,0,20-4.74,20-12.83,0-8.66-8.91-11.45-23.77-17.59l-21.88-9.49C23,119.38,6.48,102.91,6.48,76.68c0-31,27-56.37,65.38-56.37A82.92,82.92,0,0,1,130.2,44.59L107,74.73C95.09,66.08,84.82,61.61,71.86,61.61c-11.35,0-18.37,4.19-18.37,12.28,0,8.65,10,11.72,25.93,18.14l21.34,8.65c1,.39,1.91.8,2.83,1.23L38.81,122.62l90,1.14C132.92,131.12,135.07,139.92,135.07,150.36Z"/><path class="cls-1" d="M186.91,0C171.56,0,160.6,10.41,160.6,24.86s11,24.87,26.31,24.87,26.32-10.41,26.32-24.87S202.26,0,186.91,0Zm-5.15,33.13V15.92l14.9,8.61Z"/><polygon class="cls-1" points="210.49 65.38 210.49 67.74 163.34 82.81 163.34 65.38 210.49 65.38"/><polygon class="cls-1" points="163.34 108.43 210.49 87.5 210.49 205.09 163.34 205.09 163.34 108.43"/><polygon class="cls-1" points="369.28 10.72 369.28 16.98 322.67 31.88 322.67 10.72 369.28 10.72"/><path class="cls-1" d="M237.58,135.25c0,45.23,21.68,73.16,55.28,73.16,11.92,0,24.93-6.7,34.14-16.2h1.09l3.25,12.85h37.94V38.66L322,108.33v48.15c-4.78,7.32-10.09,9.42-17,9.42-12.21,0-19.64-8.9-19.64-32.45,0-23,9-31.4,18.58-31.4,5.84,0,12.74,1.57,18,6.28L280.26,64C257.4,70.91,237.58,96.47,237.58,135.25Zm131.7-96.78V17l-46.61,20.7V56l.3,18.78a39.83,39.83,0,0,0-13.79-9.63,49.57,49.57,0,0,0-16.32-3,43.16,43.16,0,0,0-12.6,1.9l40.68,29Q345.12,65.75,369.28,38.47Z"/></g><g id="Layer_1-2" data-name="Layer 1"><path class="cls-1" d="M369.83,37.85l-.55.81v-.19Z"/></g></g></svg>